<svg fill="none" height="300" viewBox="0 0 300 300" width="300" xmlns="http://www.w3.org/2000/svg" xmlns:xlink="http://www.w3.org/1999/xlink"><linearGradient id="a"><stop offset="0" stop-color="#b44ebf"/><stop offset="1" stop-color="#6b2372"/></linearGradient><linearGradient id="b" gradientUnits="userSpaceOnUse" x1="104.883" x2="292.383" xlink:href="#a" y1="37.1429" y2="37.1429"/><linearGradient id="c" gradientUnits="userSpaceOnUse" x1="292.383" x2="104.883" xlink:href="#a" y1="149.643" y2="149.643"/><linearGradient id="d" gradientUnits="userSpaceOnUse" x1="104.883" x2="292.383" xlink:href="#a" y1="262.143" y2="262.143"/><path d="m286.232 75h-175.199c-3.397 0-6.15-2.7536-6.15-6.1503v-62.69938c0-3.39673 2.753-6.15032763 6.15-6.15032763h175.199c3.397 0 6.151 2.75359763 6.151 6.15032763v62.69938c0 3.3967-2.754 6.1503-6.151 6.1503z" fill="url(#b)"/><path d="m111.033 187.5h175.199c3.397 0 6.151-2.754 6.151-6.15v-62.7c0-3.396-2.754-6.15-6.151-6.15h-175.199c-3.397 0-6.15 2.754-6.15 6.15v62.7c0 3.396 2.753 6.15 6.15 6.15z" fill="url(#c)"/><path d="m286.232 300h-175.199c-3.397 0-6.15-2.754-6.15-6.15v-62.7c0-3.396 2.753-6.15 6.15-6.15h175.199c3.397 0 6.151 2.754 6.151 6.15v62.7c0 3.396-2.754 6.15-6.151 6.15z" fill="url(#d)"/><path d="m45.6129 15.6184h-31.4626c-3.3967 0-6.1503 2.7536-6.1503 6.1503v31.4626c0 3.3967 2.7536 6.1503 6.1503 6.1503h31.4626c3.3967 0 6.1503-2.7536 6.1503-6.1503v-31.4626c0-3.3967-2.7536-6.1503-6.1503-6.1503z" fill="#b44ebf"/><path d="m45.6129 128.118h-31.4626c-3.3967 0-6.1503 2.754-6.1503 6.151v31.462c0 3.397 2.7536 6.151 6.1503 6.151h31.4626c3.3967 0 6.1503-2.754 6.1503-6.151v-31.462c0-3.397-2.7536-6.151-6.1503-6.151z" fill="#6b2372"/><path d="m45.6129 240.618h-31.4626c-3.3967 0-6.1503 2.754-6.1503 6.151v31.462c0 3.397 2.7536 6.151 6.1503 6.151h31.4626c3.3967 0 6.1503-2.754 6.1503-6.151v-31.462c0-3.397-2.7536-6.151-6.1503-6.151z" fill="#b44ebf"/></svg>