<svg width="24" height="24" viewBox="0 0 24 24" fill="none" xmlns="http://www.w3.org/2000/svg">
<path d="M22.8003 12H12.0002V9.59991H20.4001C21.0002 9.59991 21.6 9.11998 21.6 8.39998L21.6002 3.60002C21.6002 2.88001 21.0002 2.40008 20.4003 2.40008L4.79986 2.39988V0H2.39977V3.60002C2.39977 4.20009 2.87971 4.79996 3.59971 4.79996H19.1996V7.20004H10.7998C10.0797 7.20004 9.59982 7.67998 9.59982 8.39998V12H1.19994C0.479934 12 0 12.4799 0 13.1999V22.8002C0 23.4002 0.479934 24.0001 1.19994 24.0001H22.8001C23.4001 24.0001 24 23.4 24 22.8002V13.1999C24 12.4799 23.4001 12 22.8001 12L22.8003 12ZM9.60003 19.2H7.20015V21.6001H4.80007V19.2H2.39998V16.8H4.80007V14.3999H7.20015V16.8H9.60023L9.60003 19.2ZM16.8001 19.2H14.4V16.8H16.8001V19.2ZM21.6002 19.2H19.2001V16.8H21.6002V19.2Z" fill="#14161E"/>
</svg>
