<svg fill="none" height="300" viewBox="0 0 300 300" width="300" xmlns="http://www.w3.org/2000/svg" xmlns:xlink="http://www.w3.org/1999/xlink"><linearGradient id="a" gradientUnits="userSpaceOnUse" x1="179.974" x2=".000395" y1="194.458" y2="194.458"><stop offset="0" stop-color="#b44ebf"/><stop offset="1" stop-color="#6b2372"/></linearGradient><clipPath id="b"><path d="m0 0h300v300h-300z"/></clipPath><g clip-path="url(#b)"><path clip-rule="evenodd" d="m128.687 0h162.607c4.796 0 8.683 3.88754 8.683 8.68307v195.74793c0 4.795-3.887 8.683-8.683 8.683h-35.882v-178.8313c0-3.866-3.134-7-7-7h-128.408v-18.59963c0-4.79553 3.887-8.68307 8.683-8.68307z" fill="#6b2372" fill-rule="evenodd"/><path clip-rule="evenodd" d="m68.684 43.4487h162.607c4.796 0 8.683 3.8875 8.683 8.6831v195.7472c0 4.796-3.887 8.683-8.683 8.683h-35.749v-178.8294c0-3.866-3.134-7-7-7h-128.541v-18.6008c0-4.7956 3.8875-8.6831 8.683-8.6831z" fill="#b44ebf" fill-rule="evenodd"/><path d="m8.68347 86.8861h162.60753c4.795 0 8.683 3.8875 8.683 8.683v195.7479c0 4.795-3.888 8.683-8.683 8.683h-162.60753c-4.79553 0-8.68307327-3.888-8.68307327-8.683v-195.7479c0-4.7955 3.88754327-8.683 8.68307327-8.683z" fill="url(#a)"/></g></svg>