<svg width="72" height="14" viewBox="0 0 72 14" fill="none" xmlns="http://www.w3.org/2000/svg">
<g clip-path="url(#clip0_5507_57477)">
<g clip-path="url(#clip1_5507_57477)">
<path d="M17.4062 13.3126H14.1523L16.1875 0.728271H19.4413L17.4062 13.3126Z" fill="#00579F"/>
<path d="M29.202 1.03577C28.5601 0.781139 27.5422 0.5 26.2835 0.5C23.0701 0.5 20.8073 2.21352 20.7934 4.66335C20.7667 6.47082 22.4135 7.47474 23.6452 8.07741C24.9041 8.69324 25.332 9.0952 25.332 9.64413C25.3192 10.4872 24.3148 10.8758 23.3779 10.8758C22.0788 10.8758 21.3827 10.6754 20.3249 10.2064L19.8964 10.0053L19.4411 12.8303C20.2043 13.1779 21.6103 13.4865 23.0701 13.5C26.4843 13.5 28.7071 11.813 28.7335 9.20232C28.7464 7.76975 27.8769 6.67207 26.0021 5.77509C24.8641 5.19929 24.1671 4.81103 24.1671 4.22189C24.1804 3.6863 24.7566 3.13772 26.0413 3.13772C27.0991 3.11086 27.8763 3.36513 28.4651 3.61957L28.7594 3.7532L29.202 1.03577V1.03577Z" fill="#00579F"/>
<path d="M33.5267 8.85443C33.7947 8.13148 34.8258 5.33343 34.8258 5.33343C34.8123 5.3603 35.0933 4.59713 35.2539 4.12863L35.4813 5.21297C35.4813 5.21297 36.0975 8.22525 36.2313 8.85443C35.7228 8.85443 34.1694 8.85443 33.5267 8.85443ZM37.5433 0.728271H35.0264C34.2502 0.728271 33.6605 0.955674 33.3256 1.7724L28.4924 13.3124H31.9066C31.9066 13.3124 32.4687 11.7592 32.5895 11.4247C32.9641 11.4247 36.2854 11.4247 36.7673 11.4247C36.8607 11.8665 37.1555 13.3124 37.1555 13.3124H40.1683L37.5433 0.728271V0.728271Z" fill="#00579F"/>
<path d="M11.4345 0.728271L8.24786 9.30959L7.89963 7.5692C7.31049 5.56101 5.4628 3.37916 3.40088 2.29429L6.31974 13.2993H9.76067L14.8753 0.728271H11.4345V0.728271Z" fill="#00579F"/>
<path d="M5.28879 0.728271H0.0535585L0 0.982542C4.08381 2.02685 6.78843 4.54411 7.89964 7.56973L6.76157 1.7861C6.5742 0.982364 5.9984 0.754784 5.28879 0.728271Z" fill="#FAA61A"/>
</g>
<ellipse cx="55.1742" cy="7" rx="7.00586" ry="7" fill="#ED0006"/>
<path d="M59.7185 12.3282C61.2251 11.0443 62.1805 9.1336 62.1805 7C62.1805 4.8664 61.2251 2.95575 59.7185 1.67182C60.9418 0.629318 62.5285 0 64.2624 0C68.1316 0 71.2682 3.13401 71.2682 7C71.2682 10.866 68.1316 14 64.2624 14C62.5285 14 60.9418 13.3707 59.7185 12.3282Z" fill="#F9A000"/>
<path d="M59.7189 12.3283C61.2254 11.0444 62.1806 9.13382 62.1806 7.00034C62.1806 4.86685 61.2254 2.95629 59.7189 1.67236C58.2124 2.95629 57.2572 4.86685 57.2572 7.00034C57.2572 9.13382 58.2124 11.0444 59.7189 12.3283Z" fill="#FF5E00"/>
</g>
<defs>
<clipPath id="clip0_5507_57477">
<rect width="71.2682" height="14" fill="white"/>
</clipPath>
<clipPath id="clip1_5507_57477">
<rect width="40.1683" height="13" fill="white" transform="translate(0 0.5)"/>
</clipPath>
</defs>
</svg>
