<svg width="82" height="20" viewBox="0 0 82 20" fill="none" xmlns="http://www.w3.org/2000/svg">
<g clip-path="url(#clip0_5507_57478)">
<path d="M10 20C15.5228 20 20 15.5228 20 10C20 4.47715 15.5228 0 10 0C4.47715 0 0 4.47715 0 10C0 15.5228 4.47715 20 10 20Z" fill="#26A17B"/>
<path fill-rule="evenodd" clip-rule="evenodd" d="M11.0138 10.9775V10.9763C10.945 10.9813 10.5906 11.0025 9.8 11.0025C9.16875 11.0025 8.72437 10.9838 8.56812 10.9763V10.9781C6.13812 10.8713 4.32437 10.4481 4.32437 9.94188C4.32437 9.43625 6.13812 9.01313 8.56812 8.90438V10.5569C8.72687 10.5681 9.18187 10.595 9.81062 10.595C10.565 10.595 10.9431 10.5638 11.0138 10.5575V8.90563C13.4388 9.01375 15.2481 9.43688 15.2481 9.94188C15.2481 10.4481 13.4388 10.87 11.0138 10.9775V10.9775ZM11.0138 8.73375V7.255H14.3975V5H5.18438V7.255H8.56812V8.73313C5.81812 8.85938 3.75 9.40437 3.75 10.0569C3.75 10.7094 5.81812 11.2537 8.56812 11.3806V16.1194H11.0138V11.3794C13.7594 11.2531 15.8225 10.7087 15.8225 10.0569C15.8225 9.405 13.7594 8.86063 11.0138 8.73375" fill="white"/>
</g>
<circle cx="34" cy="10" r="10" fill="#F0B90B"/>
<path d="M34.0837 2.95459L35.85 4.75805L31.4023 9.19243L29.636 7.43141L34.0837 2.95459Z" fill="white" stroke="#F0B90B"/>
<path d="M36.765 5.62793L38.5314 7.43139L31.4023 14.5391L29.636 12.7781L36.765 5.62793Z" fill="white" stroke="#F0B90B"/>
<path d="M28.7209 8.30127L30.4872 10.1047L28.7209 11.8658L26.9546 10.1047L28.7209 8.30127Z" fill="white" stroke="#F0B90B"/>
<path d="M39.4464 8.30127L41.2127 10.1047L34.0836 17.2125L32.3173 15.4514L39.4464 8.30127Z" fill="white" stroke="#F0B90B"/>
<g clip-path="url(#clip1_5507_57478)">
<path d="M58 20C63.5228 20 68 15.5228 68 10C68 4.47715 63.5228 0 58 0C52.4772 0 48 4.47715 48 10C48 15.5228 52.4772 20 58 20Z" fill="#F7931A"/>
<path d="M62.395 8.7625C62.5912 7.4525 61.5931 6.74813 60.2294 6.27813L60.6719 4.50312L59.5919 4.23438L59.1606 5.9625C58.8769 5.89125 58.5856 5.825 58.295 5.75875L58.7294 4.01938L57.6494 3.75L57.2069 5.52437C56.9719 5.47062 56.7406 5.41813 56.5169 5.36188L56.5181 5.35625L55.0281 4.98437L54.7406 6.13813C54.7406 6.13813 55.5425 6.32188 55.5256 6.33313C55.9631 6.4425 56.0419 6.73187 56.0288 6.96187L55.525 8.98375C55.555 8.99125 55.5938 9.0025 55.6375 9.01937L55.5231 8.99125L54.8169 11.8237C54.7631 11.9562 54.6275 12.1556 54.3213 12.08C54.3325 12.0956 53.5363 11.8844 53.5363 11.8844L53 13.1206L54.4062 13.4713C54.6675 13.5369 54.9237 13.6056 55.1756 13.67L54.7288 15.465L55.8081 15.7337L56.2506 13.9587C56.5456 14.0381 56.8319 14.1119 57.1119 14.1819L56.6706 15.9494L57.7506 16.2181L58.1975 14.4269C60.04 14.7756 61.425 14.635 62.0081 12.9688C62.4781 11.6275 61.985 10.8531 61.0156 10.3488C61.7219 10.1863 62.2531 9.72188 62.395 8.7625V8.7625ZM59.9263 12.2238C59.5931 13.5656 57.3338 12.84 56.6013 12.6581L57.195 10.28C57.9275 10.4631 60.2756 10.825 59.9263 12.2238ZM60.2606 8.74313C59.9563 9.96375 58.0763 9.34313 57.4669 9.19125L58.0044 7.035C58.6137 7.18687 60.5781 7.47 60.2606 8.74313Z" fill="white"/>
</g>
<g clip-path="url(#clip2_5507_57478)">
<circle cx="82" cy="10" r="9.5" fill="url(#paint0_linear_5507_57478)" fill-opacity="0.5" stroke="url(#paint1_linear_5507_57478)"/>
</g>
<defs>
<linearGradient id="paint0_linear_5507_57478" x1="72" y1="10" x2="82.5" y2="10" gradientUnits="userSpaceOnUse">
<stop stop-color="#CFDAE0"/>
<stop offset="1" stop-color="#CFDAE0" stop-opacity="0"/>
</linearGradient>
<linearGradient id="paint1_linear_5507_57478" x1="72.5" y1="10" x2="82.5" y2="10" gradientUnits="userSpaceOnUse">
<stop stop-color="#CFDAE0"/>
<stop offset="1" stop-color="#CFDAE0" stop-opacity="0"/>
</linearGradient>
<clipPath id="clip0_5507_57478">
<rect width="20" height="20" fill="white"/>
</clipPath>
<clipPath id="clip1_5507_57478">
<rect width="20" height="20" fill="white" transform="translate(48)"/>
</clipPath>
<clipPath id="clip2_5507_57478">
<rect width="10" height="20" fill="white" transform="translate(72)"/>
</clipPath>
</defs>
</svg>
