<svg width="77" height="20" viewBox="0 0 77 20" fill="none" xmlns="http://www.w3.org/2000/svg">
<path d="M28.6955 4.09033H24.4487C24.1581 4.09033 23.911 4.29639 23.8657 4.57639L22.1481 15.2049C22.1139 15.4146 22.2803 15.6037 22.4983 15.6037H24.5257C24.8164 15.6037 25.0635 15.3976 25.1088 15.117L25.5721 12.2503C25.6168 11.9697 25.8646 11.7637 26.1545 11.7637H27.4989C30.2964 11.7637 31.9109 10.4425 32.3326 7.82427C32.5226 6.67882 32.3406 5.77882 31.7911 5.14851C31.1875 4.45639 30.1169 4.09033 28.6955 4.09033ZM29.1855 7.97215C28.9532 9.45942 27.7889 9.45942 26.6631 9.45942H26.0223L26.4719 6.68185C26.4986 6.51397 26.6476 6.39033 26.8215 6.39033H27.1152C27.8821 6.39033 28.6055 6.39033 28.9793 6.817C29.2023 7.07154 29.2706 7.44973 29.1855 7.97215Z" fill="#253B80"/>
<path d="M41.39 7.92422H39.3563C39.1831 7.92422 39.0334 8.04785 39.0067 8.21573L38.9167 8.77088L38.7745 8.56967C38.3342 7.94603 37.3524 7.73755 36.3726 7.73755C34.1253 7.73755 32.2059 9.39876 31.832 11.7291C31.6377 12.8915 31.914 14.003 32.5896 14.7782C33.2094 15.4909 34.0961 15.7879 35.1511 15.7879C36.9619 15.7879 37.966 14.6515 37.966 14.6515L37.8753 15.203C37.8412 15.4139 38.0076 15.603 38.2243 15.603H40.0561C40.3474 15.603 40.5933 15.3969 40.6392 15.1163L41.7383 8.323C41.7731 8.11391 41.6073 7.92422 41.39 7.92422ZM38.5553 11.7872C38.359 12.9212 37.4369 13.6824 36.2608 13.6824C35.6702 13.6824 35.1983 13.4975 34.8953 13.1472C34.5947 12.7994 34.4805 12.3042 34.5761 11.7527C34.7593 10.6285 35.697 9.8424 36.8551 9.8424C37.4326 9.8424 37.902 10.0297 38.2112 10.383C38.5211 10.74 38.6441 11.2382 38.5553 11.7872Z" fill="#253B80"/>
<path d="M52.2209 7.92432H50.1773C49.9823 7.92432 49.7991 8.01886 49.6886 8.17704L46.87 12.2292L45.6753 8.33523C45.6001 8.09159 45.3698 7.92432 45.109 7.92432H43.1007C42.8567 7.92432 42.6872 8.15704 42.7648 8.38129L45.0158 14.8286L42.8996 17.7443C42.7331 17.974 42.9008 18.2898 43.1883 18.2898H45.2294C45.4232 18.2898 45.6045 18.1976 45.7144 18.0425L52.5115 8.46674C52.6742 8.23765 52.5072 7.92432 52.2209 7.92432Z" fill="#253B80"/>
<path d="M58.987 4.09033H54.7396C54.4496 4.09033 54.2024 4.29639 54.1571 4.57639L52.4395 15.2049C52.4053 15.4146 52.5718 15.6037 52.7885 15.6037H54.9681C55.1705 15.6037 55.3438 15.4594 55.3754 15.2631L55.8629 12.2503C55.9076 11.9697 56.1554 11.7637 56.4454 11.7637H57.7891C60.5872 11.7637 62.2011 10.4425 62.6234 7.82427C62.814 6.67882 62.6308 5.77882 62.0813 5.14851C61.4783 4.45639 60.4084 4.09033 58.987 4.09033ZM59.4769 7.97215C59.2453 9.45942 58.081 9.45942 56.9545 9.45942H56.3143L56.7645 6.68185C56.7912 6.51397 56.939 6.39033 57.1135 6.39033H57.4072C58.1735 6.39033 58.8976 6.39033 59.2714 6.817C59.4943 7.07154 59.562 7.44973 59.4769 7.97215Z" fill="#179BD7"/>
<path d="M71.6808 7.92422H69.6484C69.4739 7.92422 69.3255 8.04785 69.2994 8.21573L69.2093 8.77088L69.0665 8.56967C68.6262 7.94603 67.6451 7.73755 66.6652 7.73755C64.4179 7.73755 62.4992 9.39876 62.1253 11.7291C61.9316 12.8915 62.2067 14.003 62.8823 14.7782C63.5033 15.4909 64.3888 15.7879 65.4438 15.7879C67.2545 15.7879 68.2586 14.6515 68.2586 14.6515L68.168 15.203C68.1338 15.4139 68.3002 15.603 68.5182 15.603H70.3494C70.6394 15.603 70.8866 15.3969 70.9319 15.1163L72.0316 8.323C72.0652 8.11391 71.8987 7.92422 71.6808 7.92422ZM68.8461 11.7872C68.6511 12.9212 67.7277 13.6824 66.5516 13.6824C65.9623 13.6824 65.4891 13.4975 65.1861 13.1472C64.8855 12.7994 64.7725 12.3042 64.8669 11.7527C65.0513 10.6285 65.9877 9.8424 67.1459 9.8424C67.7234 9.8424 68.1928 10.0297 68.5021 10.383C68.8132 10.74 68.9361 11.2382 68.8461 11.7872Z" fill="#179BD7"/>
<path d="M74.0784 4.38172L72.3353 15.2048C72.3011 15.4144 72.4676 15.6035 72.6843 15.6035H74.4367C74.7279 15.6035 74.975 15.3975 75.0197 15.1169L76.7386 4.48899C76.7727 4.2793 76.6063 4.0896 76.3896 4.0896H74.4273C74.2541 4.09021 74.1051 4.21384 74.0784 4.38172Z" fill="#179BD7"/>
<path d="M4.51195 17.6691L4.83671 15.6558L4.11329 15.6394H0.658844L3.05951 0.78303C3.06696 0.738181 3.09117 0.696363 3.12657 0.666666C3.16196 0.636969 3.2073 0.620605 3.25449 0.620605H9.07917C11.0129 0.620605 12.3473 1.01333 13.044 1.78848C13.3707 2.15212 13.5787 2.53212 13.6793 2.9503C13.7849 3.38909 13.7867 3.91333 13.6836 4.55273L13.6762 4.59939V5.00909L14.0028 5.1897C14.2779 5.33212 14.4965 5.49515 14.6641 5.68182C14.9436 5.99273 15.1243 6.38788 15.2007 6.85636C15.2795 7.33818 15.2534 7.91151 15.1243 8.56061C14.9753 9.30727 14.7343 9.95758 14.4089 10.4897C14.1096 10.98 13.7284 11.3867 13.2757 11.7018C12.8435 12.0012 12.3299 12.2285 11.7493 12.3739C11.1867 12.517 10.5453 12.5891 9.84171 12.5891H9.38841C9.06426 12.5891 8.74943 12.703 8.50229 12.9073C8.25452 13.1158 8.09059 13.4006 8.04029 13.7121L8.00613 13.8933L7.43236 17.4418L7.40628 17.5721C7.39945 17.6133 7.38765 17.6339 7.37026 17.6479C7.35474 17.6606 7.33238 17.6691 7.31065 17.6691H4.51195Z" fill="#253B80"/>
<path d="M14.3121 4.64673C14.2947 4.75521 14.2748 4.86612 14.2525 4.98006C13.4843 8.82915 10.8564 10.1588 7.50005 10.1588H5.79115C5.38069 10.1588 5.03481 10.4498 4.97085 10.8449L4.09591 16.2607L3.84814 17.7958C3.80654 18.0552 4.01145 18.2892 4.27971 18.2892H7.31066C7.66958 18.2892 7.97447 18.0346 8.03098 17.6892L8.06078 17.5388L8.63145 14.0043L8.66809 13.8104C8.72398 13.4637 9.02949 13.2092 9.38841 13.2092H9.84172C12.7783 13.2092 15.0771 12.0455 15.749 8.67824C16.0297 7.27158 15.8844 6.09703 15.1417 5.27097C14.9169 5.02188 14.6381 4.81521 14.3121 4.64673Z" fill="#179BD7"/>
<path d="M13.5085 4.33403C13.3912 4.3007 13.2701 4.2704 13.1459 4.24312C13.0211 4.21646 12.8931 4.19282 12.7615 4.17221C12.3007 4.09949 11.7959 4.06494 11.255 4.06494H6.68968C6.57728 4.06494 6.47048 4.08979 6.37485 4.13464C6.16434 4.23343 6.00786 4.42797 5.96998 4.66615L4.99878 10.6698L4.97084 10.8449C5.0348 10.4498 5.38068 10.1589 5.79114 10.1589H7.50004C10.8564 10.1589 13.4843 8.82858 14.2524 4.98009C14.2754 4.86615 14.2947 4.75524 14.3121 4.64676C14.1177 4.54615 13.9072 4.46009 13.6805 4.38676C13.6246 4.36858 13.5669 4.351 13.5085 4.33403Z" fill="#222D65"/>
<path d="M5.96999 4.66606C6.00787 4.42788 6.16435 4.23333 6.37486 4.13515C6.47111 4.0903 6.5773 4.06545 6.68969 4.06545H11.255C11.7959 4.06545 12.3008 4.1 12.7615 4.17273C12.8932 4.19333 13.0211 4.21697 13.1459 4.24364C13.2701 4.27091 13.3912 4.30121 13.5085 4.33455C13.5669 4.35152 13.6247 4.36909 13.6812 4.38667C13.9078 4.46 14.1183 4.54667 14.3127 4.64667C14.5412 3.22424 14.3108 2.25576 13.5228 1.37879C12.6541 0.413333 11.0861 0 9.0798 0H3.25512C2.84528 0 2.49568 0.290909 2.43234 0.686667L0.006218 15.6958C-0.0415965 15.9927 0.193129 16.2606 0.499887 16.2606H4.09591L4.9988 10.6697L5.96999 4.66606Z" fill="#253B80"/>
</svg>
