<svg xmlns="http://www.w3.org/2000/svg" version="1.1" xmlns:xlink="http://www.w3.org/1999/xlink" xmlns:svgjs="http://svgjs.com/svgjs" width="1440" height="560" preserveAspectRatio="none" viewBox="0 0 1440 560"><g mask="url(&quot;#SvgjsMask1328&quot;)" fill="none"><rect width="1440" height="560" x="0" y="0" fill="rgba(24, 26, 32, 1)"></rect><use xlink:href="#SvgjsSymbol1335" x="0" y="0"></use><use xlink:href="#SvgjsSymbol1335" x="720" y="0"></use></g><defs><mask id="SvgjsMask1328"><rect width="1440" height="560" fill="#ffffff"></rect></mask><path d="M-1 0 a1 1 0 1 0 2 0 a1 1 0 1 0 -2 0z" id="SvgjsPath1333"></path><path d="M-3 0 a3 3 0 1 0 6 0 a3 3 0 1 0 -6 0z" id="SvgjsPath1332"></path><path d="M-5 0 a5 5 0 1 0 10 0 a5 5 0 1 0 -10 0z" id="SvgjsPath1329"></path><path d="M2 -2 L-2 2z" id="SvgjsPath1331"></path><path d="M6 -6 L-6 6z" id="SvgjsPath1330"></path><path d="M30 -30 L-30 30z" id="SvgjsPath1334"></path></defs><symbol id="SvgjsSymbol1335"><use xlink:href="#SvgjsPath1329" x="30" y="30" stroke="rgba(33, 43, 54, 1)"></use><use xlink:href="#SvgjsPath1330" x="30" y="90" stroke="rgba(33, 43, 54, 1)"></use><use xlink:href="#SvgjsPath1329" x="30" y="150" stroke="rgba(33, 43, 54, 1)"></use><use xlink:href="#SvgjsPath1331" x="30" y="210" stroke="rgba(33, 43, 54, 1)"></use><use xlink:href="#SvgjsPath1329" x="30" y="270" stroke="rgba(33, 43, 54, 1)"></use><use xlink:href="#SvgjsPath1330" x="30" y="330" stroke="rgba(33, 43, 54, 1)"></use><use xlink:href="#SvgjsPath1330" x="30" y="390" stroke="rgba(33, 43, 54, 1)"></use><use xlink:href="#SvgjsPath1331" x="30" y="450" stroke="rgba(33, 43, 54, 1)"></use><use xlink:href="#SvgjsPath1329" x="30" y="510" stroke="rgba(33, 43, 54, 1)"></use><use xlink:href="#SvgjsPath1330" x="30" y="570" stroke="rgba(33, 43, 54, 1)"></use><use xlink:href="#SvgjsPath1330" x="90" y="30" stroke="rgba(33, 43, 54, 1)"></use><use xlink:href="#SvgjsPath1330" x="90" y="90" stroke="rgba(33, 43, 54, 1)"></use><use xlink:href="#SvgjsPath1329" x="90" y="150" stroke="rgba(33, 43, 54, 1)"></use><use xlink:href="#SvgjsPath1332" x="90" y="210" stroke="rgba(33, 43, 54, 1)"></use><use xlink:href="#SvgjsPath1331" x="90" y="270" stroke="rgba(33, 43, 54, 1)"></use><use xlink:href="#SvgjsPath1330" x="90" y="330" stroke="rgba(33, 43, 54, 1)"></use><use xlink:href="#SvgjsPath1331" x="90" y="390" stroke="rgba(33, 43, 54, 1)"></use><use xlink:href="#SvgjsPath1330" x="90" y="450" stroke="rgba(33, 43, 54, 1)"></use><use xlink:href="#SvgjsPath1331" x="90" y="510" stroke="rgba(33, 43, 54, 1)"></use><use xlink:href="#SvgjsPath1331" x="90" y="570" stroke="rgba(33, 43, 54, 1)"></use><use xlink:href="#SvgjsPath1329" x="150" y="30" stroke="rgba(33, 43, 54, 1)"></use><use xlink:href="#SvgjsPath1330" x="150" y="90" stroke="rgba(33, 43, 54, 1)"></use><use xlink:href="#SvgjsPath1333" x="150" y="150" stroke="rgba(33, 43, 54, 1)"></use><use xlink:href="#SvgjsPath1330" x="150" y="210" stroke="rgba(33, 43, 54, 1)"></use><use xlink:href="#SvgjsPath1330" x="150" y="270" stroke="rgba(33, 43, 54, 1)"></use><use xlink:href="#SvgjsPath1329" x="150" y="330" stroke="rgba(33, 43, 54, 1)"></use><use xlink:href="#SvgjsPath1329" x="150" y="390" stroke="rgba(33, 43, 54, 1)"></use><use xlink:href="#SvgjsPath1331" x="150" y="450" stroke="rgba(33, 43, 54, 1)"></use><use xlink:href="#SvgjsPath1329" x="150" y="510" stroke="rgba(33, 43, 54, 1)"></use><use xlink:href="#SvgjsPath1329" x="150" y="570" stroke="rgba(33, 43, 54, 1)"></use><use xlink:href="#SvgjsPath1329" x="210" y="30" stroke="rgba(33, 43, 54, 1)"></use><use xlink:href="#SvgjsPath1329" x="210" y="90" stroke="rgba(33, 43, 54, 1)"></use><use xlink:href="#SvgjsPath1331" x="210" y="150" stroke="rgba(33, 43, 54, 1)"></use><use xlink:href="#SvgjsPath1334" x="210" y="210" stroke="rgba(33, 43, 54, 1)" stroke-width="3"></use><use xlink:href="#SvgjsPath1330" x="210" y="270" stroke="rgba(33, 43, 54, 1)"></use><use xlink:href="#SvgjsPath1330" x="210" y="330" stroke="rgba(33, 43, 54, 1)"></use><use xlink:href="#SvgjsPath1331" x="210" y="390" stroke="rgba(33, 43, 54, 1)"></use><use xlink:href="#SvgjsPath1329" x="210" y="450" stroke="rgba(33, 43, 54, 1)"></use><use xlink:href="#SvgjsPath1333" x="210" y="510" stroke="rgba(33, 43, 54, 1)"></use><use xlink:href="#SvgjsPath1333" x="210" y="570" stroke="rgba(33, 43, 54, 1)"></use><use xlink:href="#SvgjsPath1329" x="270" y="30" stroke="rgba(33, 43, 54, 1)"></use><use xlink:href="#SvgjsPath1331" x="270" y="90" stroke="rgba(33, 43, 54, 1)"></use><use xlink:href="#SvgjsPath1330" x="270" y="150" stroke="rgba(33, 43, 54, 1)"></use><use xlink:href="#SvgjsPath1332" x="270" y="210" stroke="rgba(33, 43, 54, 1)"></use><use xlink:href="#SvgjsPath1330" x="270" y="270" stroke="rgba(33, 43, 54, 1)"></use><use xlink:href="#SvgjsPath1330" x="270" y="330" stroke="rgba(33, 43, 54, 1)"></use><use xlink:href="#SvgjsPath1332" x="270" y="390" stroke="rgba(33, 43, 54, 1)"></use><use xlink:href="#SvgjsPath1333" x="270" y="450" stroke="rgba(33, 43, 54, 1)"></use><use xlink:href="#SvgjsPath1334" x="270" y="510" stroke="rgba(33, 43, 54, 1)" stroke-width="3"></use><use xlink:href="#SvgjsPath1329" x="270" y="570" stroke="rgba(33, 43, 54, 1)"></use><use xlink:href="#SvgjsPath1329" x="330" y="30" stroke="rgba(33, 43, 54, 1)"></use><use xlink:href="#SvgjsPath1331" x="330" y="90" stroke="rgba(33, 43, 54, 1)"></use><use xlink:href="#SvgjsPath1331" x="330" y="150" stroke="rgba(33, 43, 54, 1)"></use><use xlink:href="#SvgjsPath1329" x="330" y="210" stroke="rgba(33, 43, 54, 1)"></use><use xlink:href="#SvgjsPath1330" x="330" y="270" stroke="rgba(33, 43, 54, 1)"></use><use xlink:href="#SvgjsPath1331" x="330" y="330" stroke="rgba(33, 43, 54, 1)"></use><use xlink:href="#SvgjsPath1330" x="330" y="390" stroke="rgba(33, 43, 54, 1)"></use><use xlink:href="#SvgjsPath1334" x="330" y="450" stroke="rgba(33, 43, 54, 1)" stroke-width="3"></use><use xlink:href="#SvgjsPath1329" x="330" y="510" stroke="rgba(33, 43, 54, 1)"></use><use xlink:href="#SvgjsPath1331" x="330" y="570" stroke="rgba(33, 43, 54, 1)"></use><use xlink:href="#SvgjsPath1330" x="390" y="30" stroke="rgba(33, 43, 54, 1)"></use><use xlink:href="#SvgjsPath1333" x="390" y="90" stroke="rgba(33, 43, 54, 1)"></use><use xlink:href="#SvgjsPath1329" x="390" y="150" stroke="rgba(33, 43, 54, 1)"></use><use xlink:href="#SvgjsPath1332" x="390" y="210" stroke="rgba(33, 43, 54, 1)"></use><use xlink:href="#SvgjsPath1330" x="390" y="270" stroke="rgba(33, 43, 54, 1)"></use><use xlink:href="#SvgjsPath1329" x="390" y="330" stroke="rgba(33, 43, 54, 1)"></use><use xlink:href="#SvgjsPath1331" x="390" y="390" stroke="rgba(33, 43, 54, 1)"></use><use xlink:href="#SvgjsPath1329" x="390" y="450" stroke="rgba(33, 43, 54, 1)"></use><use xlink:href="#SvgjsPath1330" x="390" y="510" stroke="rgba(33, 43, 54, 1)"></use><use xlink:href="#SvgjsPath1330" x="390" y="570" stroke="rgba(33, 43, 54, 1)"></use><use xlink:href="#SvgjsPath1334" x="450" y="30" stroke="rgba(33, 43, 54, 1)" stroke-width="3"></use><use xlink:href="#SvgjsPath1329" x="450" y="90" stroke="rgba(33, 43, 54, 1)"></use><use xlink:href="#SvgjsPath1329" x="450" y="150" stroke="rgba(33, 43, 54, 1)"></use><use xlink:href="#SvgjsPath1331" x="450" y="210" stroke="rgba(33, 43, 54, 1)"></use><use xlink:href="#SvgjsPath1330" x="450" y="270" stroke="rgba(33, 43, 54, 1)"></use><use xlink:href="#SvgjsPath1333" x="450" y="330" stroke="rgba(33, 43, 54, 1)"></use><use xlink:href="#SvgjsPath1329" x="450" y="390" stroke="rgba(33, 43, 54, 1)"></use><use xlink:href="#SvgjsPath1329" x="450" y="450" stroke="rgba(33, 43, 54, 1)"></use><use xlink:href="#SvgjsPath1329" x="450" y="510" stroke="rgba(33, 43, 54, 1)"></use><use xlink:href="#SvgjsPath1333" x="450" y="570" stroke="rgba(33, 43, 54, 1)"></use><use xlink:href="#SvgjsPath1330" x="510" y="30" stroke="rgba(33, 43, 54, 1)"></use><use xlink:href="#SvgjsPath1333" x="510" y="90" stroke="rgba(33, 43, 54, 1)"></use><use xlink:href="#SvgjsPath1330" x="510" y="150" stroke="rgba(33, 43, 54, 1)"></use><use xlink:href="#SvgjsPath1333" x="510" y="210" stroke="rgba(33, 43, 54, 1)"></use><use xlink:href="#SvgjsPath1331" x="510" y="270" stroke="rgba(33, 43, 54, 1)"></use><use xlink:href="#SvgjsPath1333" x="510" y="330" stroke="rgba(33, 43, 54, 1)"></use><use xlink:href="#SvgjsPath1330" x="510" y="390" stroke="rgba(33, 43, 54, 1)"></use><use xlink:href="#SvgjsPath1329" x="510" y="450" stroke="rgba(33, 43, 54, 1)"></use><use xlink:href="#SvgjsPath1330" x="510" y="510" stroke="rgba(33, 43, 54, 1)"></use><use xlink:href="#SvgjsPath1329" x="510" y="570" stroke="rgba(33, 43, 54, 1)"></use><use xlink:href="#SvgjsPath1329" x="570" y="30" stroke="rgba(33, 43, 54, 1)"></use><use xlink:href="#SvgjsPath1331" x="570" y="90" stroke="rgba(33, 43, 54, 1)"></use><use xlink:href="#SvgjsPath1331" x="570" y="150" stroke="rgba(33, 43, 54, 1)"></use><use xlink:href="#SvgjsPath1330" x="570" y="210" stroke="rgba(33, 43, 54, 1)"></use><use xlink:href="#SvgjsPath1330" x="570" y="270" stroke="rgba(33, 43, 54, 1)"></use><use xlink:href="#SvgjsPath1331" x="570" y="330" stroke="rgba(33, 43, 54, 1)"></use><use xlink:href="#SvgjsPath1333" x="570" y="390" stroke="rgba(33, 43, 54, 1)"></use><use xlink:href="#SvgjsPath1333" x="570" y="450" stroke="rgba(33, 43, 54, 1)"></use><use xlink:href="#SvgjsPath1330" x="570" y="510" stroke="rgba(33, 43, 54, 1)"></use><use xlink:href="#SvgjsPath1331" x="570" y="570" stroke="rgba(33, 43, 54, 1)"></use><use xlink:href="#SvgjsPath1334" x="630" y="30" stroke="rgba(33, 43, 54, 1)" stroke-width="3"></use><use xlink:href="#SvgjsPath1333" x="630" y="90" stroke="rgba(33, 43, 54, 1)"></use><use xlink:href="#SvgjsPath1330" x="630" y="150" stroke="rgba(33, 43, 54, 1)"></use><use xlink:href="#SvgjsPath1334" x="630" y="210" stroke="rgba(33, 43, 54, 1)" stroke-width="3"></use><use xlink:href="#SvgjsPath1329" x="630" y="270" stroke="rgba(33, 43, 54, 1)"></use><use xlink:href="#SvgjsPath1329" x="630" y="330" stroke="rgba(33, 43, 54, 1)"></use><use xlink:href="#SvgjsPath1330" x="630" y="390" stroke="rgba(33, 43, 54, 1)"></use><use xlink:href="#SvgjsPath1329" x="630" y="450" stroke="rgba(33, 43, 54, 1)"></use><use xlink:href="#SvgjsPath1330" x="630" y="510" stroke="rgba(33, 43, 54, 1)"></use><use xlink:href="#SvgjsPath1332" x="630" y="570" stroke="rgba(33, 43, 54, 1)"></use><use xlink:href="#SvgjsPath1333" x="690" y="30" stroke="rgba(33, 43, 54, 1)"></use><use xlink:href="#SvgjsPath1329" x="690" y="90" stroke="rgba(33, 43, 54, 1)"></use><use xlink:href="#SvgjsPath1334" x="690" y="150" stroke="rgba(33, 43, 54, 1)" stroke-width="3"></use><use xlink:href="#SvgjsPath1330" x="690" y="210" stroke="rgba(33, 43, 54, 1)"></use><use xlink:href="#SvgjsPath1330" x="690" y="270" stroke="rgba(33, 43, 54, 1)"></use><use xlink:href="#SvgjsPath1329" x="690" y="330" stroke="rgba(33, 43, 54, 1)"></use><use xlink:href="#SvgjsPath1333" x="690" y="390" stroke="rgba(33, 43, 54, 1)"></use><use xlink:href="#SvgjsPath1330" x="690" y="450" stroke="rgba(33, 43, 54, 1)"></use><use xlink:href="#SvgjsPath1332" x="690" y="510" stroke="rgba(33, 43, 54, 1)"></use><use xlink:href="#SvgjsPath1332" x="690" y="570" stroke="rgba(33, 43, 54, 1)"></use></symbol></svg>