<svg width="261" height="52" viewBox="0 0 261 52" fill="none" xmlns="http://www.w3.org/2000/svg">
<path fill-rule="evenodd" clip-rule="evenodd" d="M65.333 48.1738H79.7287C85.8649 48.1738 90.2591 44.7158 90.2591 38.3307C90.2591 33.7661 87.6016 31.6055 85.5254 30.6455C87.2648 29.8294 89.7776 27.3784 89.7776 23.5856C89.7776 17.7263 85.8649 13.9805 79.1499 13.9805H65.333V48.1738ZM72.048 19.9366H78.6183C81.4681 19.9366 83.0626 21.5217 83.0626 23.8733C83.0626 26.2275 81.4681 27.8126 78.6183 27.8126H72.048V19.9366ZM72.048 33.8159H79.0525C82.0942 33.8159 83.5441 35.6888 83.5441 37.9933C83.5441 40.3004 82.0969 42.2203 79.0525 42.2203H72.048V33.8159Z" fill="black"/>
<path d="M110.741 48.1738V34.1506L121.077 13.9805H113.783L107.455 27.7629L101.029 13.9805H93.7355L104.074 34.1506V48.1738H110.741Z" fill="black"/>
<path fill-rule="evenodd" clip-rule="evenodd" d="M140.113 48.1738H125.718V13.9805H139.535C146.25 13.9805 150.162 17.7263 150.162 23.5856C150.162 27.3784 147.649 29.8294 145.91 30.6455C147.986 31.6055 150.644 33.7661 150.644 38.3307C150.644 44.7158 146.25 48.1738 140.113 48.1738ZM139.003 19.9366H132.433V27.8126H139.003C141.853 27.8126 143.447 26.2275 143.447 23.8733C143.447 21.5217 141.853 19.9366 139.003 19.9366ZM139.437 33.8159H132.433V42.2203H139.437C142.481 42.2203 143.929 40.3004 143.929 37.9933C143.929 35.6888 142.481 33.8159 139.437 33.8159Z" fill="black"/>
<path d="M186.348 48.1764V19.9366H195.334V13.9805H170.647V19.9366H179.633V48.1764H186.348Z" fill="black"/>
<path d="M157.99 3.82422V38.0176H164.705V3.82422H157.99Z" fill="#F7A600"/>
</svg>
