<svg width="141" height="28" viewBox="0 0 141 28" fill="none" xmlns="http://www.w3.org/2000/svg">
<path d="M37.2802 9.40619C36.9515 13.1198 33.2422 16.4798 31.9883 18.6019C30.7859 20.6368 30.3671 22.5601 31.2466 26.2749C31.2933 26.4721 31.0959 26.6444 30.9118 26.5599C29.3404 25.8386 25.3413 23.6751 25.3413 18.5173C25.3413 11.2419 33.3891 10.9821 33.0109 1.13525C33.0033 0.937312 33.2198 0.802786 33.3818 0.91682C36.0146 2.77053 37.5936 5.86652 37.2802 9.40619Z" fill="#0CA28B"/>
<path d="M32.0313 26.8534C31.9369 26.8245 31.8711 26.7385 31.8674 26.6398C31.7758 24.2264 33.0743 22.6491 34.5304 21.479C37.7623 18.8817 39.7551 15.374 38.9664 11.3156C38.9193 11.0735 39.203 10.9137 39.3615 11.1027C40.1218 12.009 40.8962 13.2373 41.3248 14.1327C43.392 18.5735 42.2888 23.6627 37.3422 26.2307C35.7936 26.9997 33.9546 27.441 32.0313 26.8534Z" fill="#3BBEAA"/>
<path d="M58.4322 15.1448V7.47656H60.9164C61.4469 7.47656 61.877 7.9182 61.877 8.4632V26.7371H59.3924C58.862 26.7371 58.4322 26.2952 58.4322 25.7504V18.2379H51.0708V26.7371H48.5862C48.0561 26.7371 47.626 26.2952 47.626 25.7504V7.47656H50.1105C50.641 7.47656 51.0708 7.9182 51.0708 8.4632V15.1448H58.4322Z" fill="black"/>
<path d="M73.1765 21.1487V12.0113L75.722 12.011C76.2629 12.011 76.7015 12.4531 76.7015 12.9988V21.3087C76.7015 24.3003 74.2737 26.7478 71.3062 26.7478H69.8634C66.8961 26.7478 64.468 24.3003 64.468 21.3089V12.011H67.0137C67.5549 12.011 67.9935 12.4531 67.9935 12.9988V20.9829C67.9935 22.8926 70.0529 24.3407 72.0435 23.1812C72.7562 22.7661 73.1765 21.979 73.1765 21.1487Z" fill="black"/>
<path d="M112.287 26.7366H114.779V13.7772C114.779 13.2307 114.348 12.7879 113.816 12.7879H111.324V25.7471C111.324 26.2936 111.755 26.7366 112.287 26.7366Z" fill="black"/>
<path d="M114.994 9.39829C114.994 10.4597 114.134 11.32 113.073 11.32C112.011 11.32 111.151 10.4597 111.151 9.39829C111.151 8.33687 112.011 7.47656 113.073 7.47656C114.134 7.47656 114.994 8.33687 114.994 9.39829Z" fill="black"/>
<path fill-rule="evenodd" clip-rule="evenodd" d="M85.9316 12.011C82.274 12.011 79.281 14.6662 79.281 18.378V20.3856C79.281 24.0976 82.274 26.737 85.9316 26.737C89.5894 26.737 92.5819 24.0976 92.5819 20.3856V18.378C92.5819 14.6662 89.5894 12.011 85.9316 12.011ZM89.0769 20.6267C89.0769 22.3823 87.6616 23.5511 85.9316 23.5511C84.2015 23.5511 82.7861 22.3823 82.7861 20.6267V18.1213C82.7861 16.3657 84.2015 15.1969 85.9316 15.1969C87.6616 15.1969 89.0769 16.3657 89.0769 18.1213V20.6267Z" fill="black"/>
<path fill-rule="evenodd" clip-rule="evenodd" d="M98.6803 12.7497C99.6286 12.28 100.714 12.0209 101.864 12.0209C105.546 12.0209 108.558 14.6744 108.558 18.3836V20.3898C108.558 24.0994 105.546 26.7371 101.864 26.7371C98.1827 26.7371 95.1706 24.0994 95.1706 20.3898V7.47656H97.7019C98.2421 7.47656 98.6803 7.91782 98.6803 8.46209V12.7497ZM101.864 23.5533C103.605 23.5533 105.03 22.3853 105.03 20.6308V18.1271C105.03 16.3727 103.605 15.2048 101.864 15.2048C100.123 15.2048 98.6986 16.3727 98.6986 18.1271V20.6308C98.6986 22.3853 100.123 23.5533 101.864 23.5533Z" fill="black"/>
</svg>
