<svg width="141" height="28" viewBox="0 0 141 28" fill="none" xmlns="http://www.w3.org/2000/svg">
<path fill-rule="evenodd" clip-rule="evenodd" d="M72.5513 12.2626C73.1553 12.1852 73.5603 11.932 73.764 11.503C73.8811 11.2685 73.9396 10.9309 73.9396 10.4902C73.9396 9.58988 73.6212 8.93577 72.9844 8.52783C72.3476 8.12224 71.4369 7.91827 70.2499 7.91827C68.878 7.91827 67.9064 8.29104 67.3328 9.03658C67.0121 9.44921 66.8037 10.0611 66.7054 10.8747H64.2495C64.2986 8.93811 64.9237 7.59004 66.1248 6.83043C67.3281 6.07316 68.7212 5.69336 70.3085 5.69336C72.1486 5.69336 73.6423 6.04503 74.7894 6.74603C75.9297 7.44937 76.4984 8.54189 76.4984 10.026V19.0568C76.4984 19.3312 76.5549 19.5492 76.6673 19.7157C76.7769 19.8821 77.0134 19.9642 77.3763 19.9642C77.4938 19.9642 77.6246 19.9572 77.7723 19.9431C77.9171 19.929 78.0742 19.9056 78.2403 19.8774V21.8234C77.8304 21.9406 77.5195 22.0133 77.3064 22.0437C77.0906 22.0719 76.8004 22.0883 76.4285 22.0883C75.522 22.0883 74.8644 21.7671 74.4547 21.1224C74.2416 20.7801 74.0895 20.2971 74.0028 19.6735C73.4667 20.3768 72.6988 20.9864 71.6944 21.5021C70.6901 22.0203 69.585 22.2782 68.377 22.2782C66.9255 22.2782 65.7385 21.8374 64.8184 20.9559C63.8983 20.0744 63.4371 18.9701 63.4371 17.6455C63.4371 16.1943 63.8913 15.0689 64.7974 14.2695C65.7034 13.47 66.8927 12.9777 68.3629 12.7924L72.5513 12.2626ZM67.0121 19.3804C67.567 19.8188 68.2248 20.0368 68.9857 20.0368C69.9104 20.0368 70.8071 19.8235 71.6757 19.3945C73.1366 18.6841 73.867 17.5189 73.867 15.9012V13.7818C73.5463 13.9881 73.1319 14.1593 72.6262 14.2952C72.1205 14.4312 71.6242 14.5297 71.1396 14.5883L69.5499 14.7923C68.5971 14.9189 67.8807 15.1181 67.4007 15.3901C66.586 15.8473 66.181 16.5788 66.181 17.5798C66.1786 18.3441 66.4573 18.942 67.0121 19.3804Z" fill="#5841D8"/>
<path d="M57.6361 6.07494H55.1357V21.7524H57.7672V12.7356C57.7672 11.622 58.1231 10.6396 58.8348 9.78624C59.5465 8.93285 60.5649 8.50616 61.89 8.50616C62.0446 8.50616 62.1897 8.51085 62.3208 8.52023C62.4519 8.5296 62.5947 8.54836 62.7516 8.57884V5.79595C62.4683 5.76547 62.2693 5.74671 62.1523 5.73733C62.0352 5.72796 61.9532 5.72327 61.9041 5.72327C60.8623 5.72327 59.9399 6.10307 59.1415 6.85799C58.3431 7.61526 57.8398 8.2553 57.6361 8.78281V6.07494Z" fill="#5841D8"/>
<path d="M28.5834 6.07361C23.0814 6.07361 18.6216 10.5421 18.6216 16.0541V20.3311C18.6216 21.1179 19.258 21.7553 20.0437 21.7553C20.8294 21.7553 21.4705 21.1179 21.4705 20.3311V16.0541C21.4705 15.265 22.1046 14.6277 22.8926 14.6277C23.6782 14.6277 24.3147 15.265 24.3147 16.0541V20.3311C24.3147 21.1179 24.9512 21.7553 25.7368 21.7553C26.5248 21.7553 27.1612 21.1179 27.1612 20.3311V16.0541C27.1612 15.265 27.7977 14.6277 28.5834 14.6277C29.3713 14.6277 30.0101 15.265 30.0101 16.0541V20.3311C30.0101 21.1179 30.6466 21.7553 31.4323 21.7553C32.2179 21.7553 32.8544 21.1179 32.8544 20.3311V16.0541C32.8544 15.265 33.4908 14.6277 34.2812 14.6277C35.0668 14.6277 35.7032 15.265 35.7032 16.0541V20.3311C35.7032 21.1179 36.3397 21.7553 37.1277 21.7553C37.9133 21.7553 38.5498 21.1179 38.5498 20.3311V16.0541C38.5498 10.5421 34.0877 6.07361 28.5834 6.07361Z" fill="#5841D8"/>
<path d="M40.7869 6.07361H43.3153V12.7319L50.0626 6.07361H53.4245L47.4077 11.902L53.7616 21.7488H50.3997L45.4762 13.7729L43.3153 15.8665V21.7511H40.7869V6.07361Z" fill="#5841D8"/>
<path d="M82.4808 12.7319V6.07361H79.9498V21.7511H82.4785V15.8665L84.6393 13.7729L89.5626 21.7488H92.9246L86.5708 11.902L92.5874 6.07361H89.2282L82.4808 12.7319Z" fill="#5841D8"/>
<path fill-rule="evenodd" clip-rule="evenodd" d="M103.656 6.50656C104.693 7.02937 105.482 7.70458 106.023 8.53453C106.545 9.32462 106.894 10.246 107.069 11.301C107.224 12.0231 107.301 13.1743 107.301 14.7544H95.9164C95.9656 16.3487 96.3375 17.6287 97.0331 18.5923C97.7282 19.5559 98.8075 20.0389 100.266 20.0389C101.629 20.0389 102.718 19.584 103.529 18.6721C103.984 18.1422 104.307 17.5303 104.496 16.834H107.084C107.016 17.4107 106.789 18.0507 106.404 18.7588C106.021 19.4668 105.59 20.0436 105.117 20.4937C104.324 21.2744 103.342 21.8019 102.172 22.0739C101.544 22.231 100.832 22.3083 100.039 22.3083C98.1029 22.3083 96.4616 21.598 95.1156 20.1795C93.7696 18.7588 93.0974 16.773 93.0974 14.2152C93.0974 11.6972 93.774 9.65284 95.1318 8.08204C96.4873 6.51124 98.2595 5.72585 100.449 5.72585C101.549 5.7235 102.619 5.98608 103.656 6.50656ZM104.597 12.6632C104.492 11.5214 104.244 10.6094 103.857 9.92715C103.144 8.65879 101.949 8.02343 100.278 8.02343C99.0793 8.02343 98.0749 8.45951 97.2646 9.334C96.4521 10.2085 96.0238 11.3174 95.9745 12.6632H104.597Z" fill="#5841D8"/>
<path d="M112.112 8.29985V6.07494H109.612V21.7524H112.244V13.5421C112.244 12.5175 112.309 11.7321 112.44 11.1789C112.572 10.6256 112.857 10.0934 113.295 9.57524C113.843 8.93285 114.475 8.50381 115.196 8.28812C115.596 8.16152 116.109 8.09822 116.731 8.09822C117.958 8.09822 118.806 8.58587 119.274 9.56117C119.558 10.1449 119.698 10.9163 119.698 11.8728V21.7524H122.374V11.697C122.374 10.1145 122.159 8.90003 121.73 8.05133C120.951 6.49929 119.45 5.72327 117.228 5.72327C116.214 5.72327 115.294 5.92255 114.466 6.32345C113.637 6.72436 112.852 7.38315 112.112 8.29985Z" fill="#5841D8"/>
</svg>
