<svg width="261" height="52" viewBox="0 0 261 52" fill="none" xmlns="http://www.w3.org/2000/svg">
<path fill-rule="evenodd" clip-rule="evenodd" d="M103.799 6.5H66.5335C66.3037 6.5 66.0833 6.59124 65.9208 6.75385C65.7582 6.9163 65.667 7.13671 65.667 7.36671V44.6326C65.667 44.8624 65.7582 45.0828 65.9208 45.2453C66.0833 45.4079 66.3037 45.4991 66.5335 45.4991H103.799C104.029 45.4991 104.25 45.4079 104.412 45.2453C104.575 45.0828 104.666 44.8624 104.666 44.6326V7.36671C104.666 7.13671 104.575 6.9163 104.412 6.75385C104.25 6.59124 104.029 6.5 103.799 6.5ZM91.6663 31.6328C91.6663 31.8626 91.5751 32.0831 91.4125 32.2457C91.2501 32.4081 91.0296 32.4995 90.7998 32.4995H79.5333C79.3035 32.4995 79.083 32.4081 78.9204 32.2457C78.758 32.0831 78.6668 31.8626 78.6668 31.6328V20.3663C78.6668 20.1365 78.758 19.9161 78.9204 19.7536C79.083 19.591 79.3035 19.4998 79.5333 19.4998H90.7998C91.0296 19.4998 91.2501 19.591 91.4125 19.7536C91.5751 19.9161 91.6663 20.1365 91.6663 20.3663V31.6328Z" fill="black"/>
<path d="M181.819 19.5012H170.553C170.075 19.5012 169.686 19.8891 169.686 20.3677V31.6342C169.686 32.1128 170.075 32.5009 170.553 32.5009H181.819C182.298 32.5009 182.686 32.1128 182.686 31.6342V20.3677C182.686 19.8891 182.298 19.5012 181.819 19.5012Z" fill="black"/>
<path d="M157.548 6.50104H168.814C169.293 6.50104 169.681 6.88895 169.681 7.36775V18.6341C169.681 19.1127 169.293 19.5008 168.814 19.5008H157.548C157.069 19.5008 156.681 19.1127 156.681 18.6341V7.36775C156.681 6.88895 157.069 6.50104 157.548 6.50104Z" fill="black"/>
<path d="M194.814 6.50104H183.547C183.069 6.50104 182.681 6.88895 182.681 7.36775V18.6341C182.681 19.1127 183.069 19.5008 183.547 19.5008H194.814C195.293 19.5008 195.681 19.1127 195.681 18.6341V7.36775C195.681 6.88895 195.293 6.50104 194.814 6.50104Z" fill="black"/>
<path d="M157.548 32.5002H168.814C169.293 32.5002 169.681 32.8881 169.681 33.3668V44.6333C169.681 45.1119 169.293 45.5 168.814 45.5H157.548C157.069 45.5 156.681 45.1119 156.681 44.6333V33.3668C156.681 32.8881 157.069 32.5002 157.548 32.5002Z" fill="black"/>
<path d="M194.814 32.5002H183.547C183.069 32.5002 182.681 32.8881 182.681 33.3668V44.6333C182.681 45.1119 183.069 45.5 183.547 45.5H194.814C195.293 45.5 195.681 45.1119 195.681 44.6333V33.3668C195.681 32.8881 195.293 32.5002 194.814 32.5002Z" fill="black"/>
<path d="M138.032 6.50104H149.299C149.777 6.50104 150.165 6.88895 150.165 7.36775V18.6341C150.165 19.1127 149.777 19.5008 149.299 19.5008H138.032C137.554 19.5008 137.165 19.1127 137.165 18.6341V7.36775C137.165 6.88895 137.554 6.50104 138.032 6.50104Z" fill="black"/>
<path d="M149.299 32.5002H138.032C137.554 32.5002 137.165 32.8881 137.165 33.3668V44.6333C137.165 45.1119 137.554 45.5 138.032 45.5H149.299C149.777 45.5 150.165 45.1119 150.165 44.6333V33.3668C150.165 32.8881 149.777 32.5002 149.299 32.5002Z" fill="black"/>
<path d="M136.912 19.7439C137.074 19.9063 137.165 20.1267 137.165 20.3566V31.6231C137.165 31.8529 137.074 32.0733 136.912 32.2359C136.749 32.3984 136.529 32.4898 136.299 32.4898H124.166V44.6131C124.166 44.8429 124.074 45.0633 123.912 45.2258C123.749 45.3884 123.529 45.4796 123.299 45.4796H112.033C111.803 45.4796 111.582 45.3884 111.42 45.2258C111.257 45.0633 111.166 44.8429 111.166 44.6131V7.36671C111.166 7.13671 111.257 6.9163 111.42 6.75385C111.582 6.59124 111.803 6.5 112.033 6.5H123.299C123.529 6.5 123.749 6.59124 123.912 6.75385C124.074 6.9163 124.166 7.13671 124.166 7.36671V19.49H136.299C136.529 19.49 136.749 19.5812 136.912 19.7439Z" fill="black"/>
</svg>
