<svg width="104" height="104" fill="none" xmlns="http://www.w3.org/2000/svg"><path d="M52 104c28.719 0 52-23.281 52-52S80.719 0 52 0 0 23.281 0 52s23.281 52 52 52z" fill="#fff"/><path d="M51.894 61.41h1.033l19.378 23.77h-39.62l19.21-23.77z" fill="#000"/><path fill="#000" d="M17.829 51.505h69.333v9.905H17.829z"/><ellipse cx="33.525" cy="35.51" rx="13.531" ry="13.535" fill="#13C8A4"/><path fill-rule="evenodd" clip-rule="evenodd" d="M39.292 27.55c-4.485-3.108-10.634-1.998-13.735 2.48-3.101 4.478-1.98 10.627 2.504 13.735 4.484 3.108 10.633 1.997 13.734-2.481 3.102-4.478 1.98-10.627-2.503-13.735zm-14.984 1.615c3.578-5.167 10.674-6.449 15.848-2.863 5.174 3.586 6.467 10.68 2.889 15.848-3.579 5.166-10.674 6.448-15.848 2.862-5.174-3.585-6.467-10.68-2.89-15.847z" fill="#000"/><path fill-rule="evenodd" clip-rule="evenodd" d="M32.03 28.637a.65.65 0 0 0-.65.65v.837h-.954a.65.65 0 0 0-.65.65v9.66c0 .36.292.65.65.65h.955v.77a.65.65 0 1 0 1.3 0v-.77h.785v.77a.65.65 0 1 0 1.3 0v-.793a3.061 3.061 0 0 0 2.81-3.042 3.06 3.06 0 0 0-1.18-2.415 3.061 3.061 0 0 0 1.18-2.415 3.061 3.061 0 0 0-2.81-3.042v-.86a.65.65 0 1 0-1.3 0v.837h-.785v-.836a.65.65 0 0 0-.65-.65zm-.953 6.317v-3.53h3.432c.975 0 1.767.793 1.767 1.765 0 .972-.792 1.765-1.767 1.765h-3.432zm0 4.83v-3.53h3.432c.975 0 1.767.793 1.767 1.765 0 .972-.792 1.765-1.767 1.765h-3.432z" fill="#000"/><ellipse cx="71.164" cy="35.51" rx="13.531" ry="13.535" fill="#13C8A4"/><path fill-rule="evenodd" clip-rule="evenodd" d="M76.93 27.55c-4.484-3.108-10.634-1.998-13.735 2.48-3.101 4.478-1.98 10.627 2.504 13.735 4.484 3.108 10.633 1.997 13.734-2.481 3.102-4.478 1.98-10.627-2.503-13.735zm-14.984 1.615c3.578-5.167 10.674-6.449 15.848-2.863 5.174 3.586 6.467 10.68 2.889 15.848-3.579 5.166-10.674 6.448-15.848 2.862-5.174-3.585-6.467-10.68-2.889-15.847z" fill="#000"/><path d="m71.038 42.482-.03-.03a.337.337 0 0 1-.043-.041l-3.864-5.19a.43.43 0 0 1 .037-.558.466.466 0 0 1 .556-.08l3.636 2.047 3.64-2.048c.18-.1.413-.067.555.081a.428.428 0 0 1 .036.559l-3.862 5.185a.282.282 0 0 1-.042.042l-.035.034a.349.349 0 0 1-.04.033.265.265 0 0 1-.026.013.475.475 0 0 1-.225.061h-.002a.46.46 0 0 1-.19-.042l-.066-.035c-.01-.007-.021-.018-.031-.027l-.004-.004zm.129.068.011.004-.011-.004zm.412-.032.01-.007-.01.007zm.043-.035.027-.025-.031.03.004-.005zm-.61-.024.027.025-.026-.026zm-.01-.012-.02-.021a.163.163 0 0 0 .02.021zm.674-.017-.015.015a.122.122 0 0 0 .015-.015zm.107-3.038v1.399l1.795-2.409-1.795 1.01zm-.906 1.399v-1.4l-1.794-1.009 1.794 2.409zm.094-11.892.015-.019.053-.05.06-.045c.004-.001.007-.004.01-.006a.305.305 0 0 1 .048-.017l.034-.014c.019-.006.036-.012.055-.015.016-.003.032-.004.049-.006a.176.176 0 0 1 .071 0 .25.25 0 0 1 .054.007c.02.004.037.01.054.014.02.008.038.014.053.022l.034.015.024.017c.01.006.02.014.03.022l.055.052.014.017c.006.008.014.015.018.022l.007.01-.005-.009-.007-.008-.01-.01-.003-.005-.02-.018.023.023.035.045-.004-.009 3.827 6.108a.418.418 0 0 1 .061.185l.003.015v.015l-.002.03a.412.412 0 0 1-.038.158.353.353 0 0 1-.026.053l-.002.003a.44.44 0 0 1-.155.149l-3.835 2.181a.187.187 0 0 1-.031.012.441.441 0 0 1-.384-.002.241.241 0 0 1-.032-.013l-3.902-2.18a.422.422 0 0 1-.178-.2.404.404 0 0 1-.038-.152.21.21 0 0 1-.005-.042c0-.006 0-.011.002-.017 0-.008.001-.015.004-.023a.41.41 0 0 1 .062-.175l3.9-6.113.02-.024.017-.018a1.28 1.28 0 0 0 .008-.009l-.023.024-.004.005.004-.005zm.217 8.958.01.002-.01-.002zm.328-.013a.454.454 0 0 1-.035.01l-.016.004s.033-.007.05-.014zm-3.081-2.522 2.442 1.364v-2.413l-2.442 1.049zm3.348 1.357 2.388-1.357-2.388-1.044v2.401zm3.784-1.23.004-.008-.004.008zm-8.574-.12.004.018.002.007-.009-.037.003.012zm8.611-.025a.243.243 0 0 1-.007.033l-.002.013s.006-.023.009-.046zm.002-.082-.004-.021a.398.398 0 0 0 .004.021zm-7.015-.93 2.286-.981v-2.602l-2.286 3.583zm3.192-.98 2.227.974-2.227-3.553v2.58zm-.197-4.509.025.02.01.009s-.02-.018-.035-.029zm-.432-.04a.164.164 0 0 0-.017.006l-.015.006.032-.013zm.215-.035c.02.002.038.006.038.006s-.023-.005-.036-.006h-.002z" fill="#000"/></svg>