<svg width="104" height="104" fill="none" xmlns="http://www.w3.org/2000/svg"><path d="M52 104c28.719 0 52-23.281 52-52S80.719 0 52 0 0 23.281 0 52s23.281 52 52 52z" fill="#fff"/><path d="M24.762 75.833a3.405 3.405 0 0 0 3.405 3.405h20.428V62.227H24.762v13.606zM79.238 28.167a3.405 3.405 0 0 0-3.405-3.405H55.405v17.011h23.833V28.167zM24.762 28.167a3.405 3.405 0 0 1 3.405-3.405h20.428v30.643H24.762V28.167zM79.238 75.833a3.405 3.405 0 0 1-3.405 3.405H55.405V48.595h23.833v27.238z" fill="#000"/><path d="M24.762 28.167a3.405 3.405 0 0 1 3.405-3.405h20.428v30.643H24.762V28.167zM79.238 75.833a3.405 3.405 0 0 1-3.405 3.405H55.405V48.595h23.833v27.238z" fill="#13C8A4"/></svg>