<svg width="104" height="104" fill="none" xmlns="http://www.w3.org/2000/svg"><path d="M52 104c28.719 0 52-23.281 52-52S80.719 0 52 0 0 23.281 0 52s23.281 52 52 52z" fill="#fff"/><path d="M18.62 60.803c.296-.553 1.012-.786 1.615-.526l10.603 4.58c1.518-3.363 1.516-7.708 1.514-9.65V30.715c0-3.777.748-6.385.765-6.443.928-3.891 5.03-6.939 9.338-6.939 1.137 0 2.25.187 3.314.56l35.618 12.949c3.365.833 5.775 3.66 5.775 7 0 1.297-.373 2.57-1.08 3.682-.226.357-.633.56-1.055.56-.161 0-.324-.03-.48-.09L74.4 37.986c-.424 1.063-.684 2.355-.684 3.928l-.002 23.856c.033.574.74 14.113-5.956 19.19-1.55 1.117-3.407 1.707-5.373 1.707a9.496 9.496 0 0 1-2.058-.226c-.04-.01-.08-.02-.121-.033-1.322-.432-32.187-10.57-39.276-16.674-4.046-2.847-3.322-7.035-2.309-8.93zm57.026-24.8 8.772 3.464c.193-.52.292-1.069.292-1.626 0-2.216-1.546-4.1-3.734-4.74-.687.079-3.129.483-4.995 2.41a7.14 7.14 0 0 0-.335.493zM22.24 67.8c.017.011.038.013.054.024.064.037.124.08.181.128.013.012.064.054.142.111.084.055.162.111.252.165.77.461 1.56.695 2.346.695 1.803 0 3.38-1.192 4.327-2.112l-9.113-3.938c-.306 1.228-.367 3.288 1.81 4.927z" fill="#000"/><path fill-rule="evenodd" clip-rule="evenodd" d="m56.28 56.095 3.172.554a.042.042 0 0 0 .045-.022l1.638-3.046v-.002l1.49-3.045a.042.042 0 0 0 .003-.032l-.091-.278a.042.042 0 0 0-.033-.028l-3.891-.68a.042.042 0 0 0-.047.029L57.4 52.928l-1.154 3.11a.042.042 0 0 0 .033.057zM49.136 54.848l3.16.552a.042.042 0 0 0 .044-.022l1.645-3.045v-.001l1.497-3.044a.043.043 0 0 0 .002-.033l-.092-.278a.042.042 0 0 0-.032-.028l-3.919-.684a.042.042 0 0 0-.047.028l-1.169 3.383-1.121 3.116a.043.043 0 0 0 .032.056zM42.18 53.635l3.173.553a.042.042 0 0 0 .044-.022l1.638-3.046.001-.001 1.49-3.045a.043.043 0 0 0 .002-.032l-.09-.279a.042.042 0 0 0-.033-.028l-3.891-.68a.042.042 0 0 0-.047.029L43.3 50.467v.001l-1.153 3.11a.042.042 0 0 0 .032.056z" fill="#13C8A4"/></svg>