<svg width="104" height="104" fill="none" xmlns="http://www.w3.org/2000/svg"><path d="M52 104c28.719 0 52-23.281 52-52S80.719 0 52 0 0 23.281 0 52s23.281 52 52 52z" fill="#fff"/><g clip-path="url(#a)"><path d="M33.015 63.299c0 3.651 6.866 6.736 14.994 6.736 8.127 0 14.993-3.085 14.993-6.736v-1.792c-2.448 2.882-8.167 4.859-14.993 4.859-6.827 0-12.546-1.977-14.994-4.86V63.3zM42.81 51.403c-.622-.1-1.227-.218-1.812-.352v.562c0 3.651 6.866 6.736 14.993 6.736s14.993-3.085 14.993-6.736V49.82c-2.447 2.883-8.167 4.86-14.993 4.86-5.245 0-10.15-1.224-13.18-3.277z" fill="#000"/><path d="M64.28 41.058v2.714c0 4.507-7.147 8.037-16.27 8.037-.556 0-1.104-.013-1.644-.039 2.674 1.027 6.058 1.61 9.625 1.61 8.128 0 14.994-3.085 14.994-6.737 0-2.217-2.548-4.32-6.705-5.585z" fill="#000"/><path d="M33.015 43.773c0 3.65 6.866 6.736 14.994 6.736 8.127 0 14.993-3.085 14.993-6.736V41.98c-2.448 2.883-8.167 4.86-14.993 4.86-6.827 0-12.546-1.977-14.994-4.86v1.793zM48.009 65.065c7.695 0 14.256-2.766 14.932-6.16-2.098.478-4.449.745-6.95.745-8.374 0-15.078-2.975-16.124-6.949-4.243 1.26-6.852 3.384-6.852 5.628 0 3.651 6.866 6.736 14.994 6.736z" fill="#000"/><path d="M48.009 45.539c8.127 0 14.993-3.085 14.993-6.736 0-3.652-6.866-6.737-14.993-6.737-8.128 0-14.994 3.085-14.994 6.737 0 3.651 6.866 6.736 14.994 6.736z" fill="#13C8A4"/><path fill-rule="evenodd" clip-rule="evenodd" d="M45.24 34.774c-.36.09-.415.3-.357.53l.133.535-1.17.298c-.36.09-.607.349-.55.58l1.544 6.176c.057.23.397.343.756.253l1.17-.263.122.491c.058.23.186.367.546.277.36-.09.404-.312.346-.542l-.123-.492 1.238-.271.123.491c.057.23.307.342.51.291.272-.068.346-.29.289-.52l-.127-.506c1.554-.478 2.851-1.684 2.595-2.71-.157-.626-.76-1.069-1.57-1.248.63-.538.955-1.213.798-1.84-.256-1.025-1.89-1.488-3.485-1.18l-.137-.55c-.058-.23-.219-.402-.578-.313-.36.09-.385.308-.328.538l.134.535-1.18.297-.134-.535c-.057-.23-.206-.412-.565-.322zm-.512 4.435-.563-2.257 3.987-1.007c.98-.244 2.383-.266 2.563.51.24 1.037-1.02 1.502-2 1.747l-3.987 1.007zm.772 3.088-.564-2.256 3.987-1.007c.98-.245 2.362-.5 2.59.487.214.922-1.047 1.525-2.026 1.77L45.5 42.296z" fill="#000"/><path d="m83 51.375 4.254-10.735-11.423 1.684L83 51.375zM52.334 21.707c13.388 0 24.706 8.868 28.398 21.053l1.914-.58c-3.94-13.005-16.019-22.473-30.312-22.473v2zM23.487 44.414c3.132-13.027 14.86-22.707 28.846-22.707v-2c-14.932 0-27.448 10.334-30.79 24.24l1.944.467zM21.666 53.292l-4.253 10.735 11.423-1.684-7.17-9.051zm30.667 29.667c-13.387 0-24.706-8.868-28.397-21.052l-1.914.58C25.962 75.491 38.04 84.96 52.333 84.96v-2zm28.849-22.713c-3.13 13.03-14.86 22.713-28.849 22.713v2c14.935 0 27.453-10.337 30.793-24.246l-1.944-.467z" fill="#000"/></g><defs><clipPath id="a"><path fill="#fff" transform="translate(17.333 17.333)" d="M0 0h69.333v69.333H0z"/></clipPath></defs></svg>