<svg width="104" height="104" fill="none" xmlns="http://www.w3.org/2000/svg"><path d="M52 104c28.719 0 52-23.281 52-52S80.719 0 52 0 0 23.281 0 52s23.281 52 52 52z" fill="#fff"/><path fill-rule="evenodd" clip-rule="evenodd" d="M60.28 24.6H43.5l-.005-.004c-2.64-2.424-12.88-11.82-19.116-2.993-3.415 4.834-1.074 10.151.39 12.278-12 23.203-2.439 35.191 3.805 39.735-.157-3.403.455-5.156.78-5.607 2.263 8.43 8.357 12.343 11.121 13.245-1.014-2.32-1.073-5.607-.975-6.961 2.887 7.89 9.463 12.31 12.39 13.535 7.336-3.326 11.38-10.409 12.486-13.535.207 2.45-.458 4.853-.8 6.094-.145.522-.233.838-.175.867 6.01-1.934 9.983-9.571 11.219-13.148.312.541.65 3.899.78 5.51 11.984-9.785 9.176-23.212 8.428-26.793l-.038-.18c-.546-2.63-3.35-9.475-4.683-12.569 5.171-7.057-.877-16.048-5.853-16.242-3.98-.154-10.308 4.448-12.975 6.768zm-7.754 22.72c8.39.354 3.708 5.51 0 6.284-.683 3.158 0 8.995 4.976 9.475 7.024.676 7.024-9.185 7.024-9.185s-2.83-16.242-13.268-15.275c-8.35.773-11.414 10.506-11.902 15.275-.26 3.03.605 9.107 6.146 9.185 5.542.077 6.146-6.284 5.756-9.475-5.073-1.257-8-6.675 1.268-6.284zm-.724 19.625c2.694 0 4.878-.78 4.878-1.74 0-.962 0-1.45-4.878-1.45-4.83 0-4.878.488-4.878 1.45 0 .96 2.184 1.74 4.878 1.74zM65.27 39.288c0 1.602-1.31 2.9-2.926 2.9-1.617 0-2.927-1.298-2.927-2.9 0-1.601 1.31-2.9 2.927-2.9 1.616 0 2.926 1.299 2.926 2.9zm-23.807 2.9c1.617 0 2.927-1.298 2.927-2.9 0-1.601-1.31-2.9-2.927-2.9-1.616 0-2.926 1.299-2.926 2.9 0 1.602 1.31 2.9 2.926 2.9z" fill="#000"/><path d="M31.265 46.982a.557.557 0 0 1 .193-.333.536.536 0 0 1 .176-.095.562.562 0 0 1 .459.06.538.538 0 0 1 .243.547l-.156.936a2.495 2.495 0 0 1 1.884 2.834 2.485 2.485 0 0 1-1.25 1.768c.491.545.74 1.3.61 2.079a2.495 2.495 0 0 1-2.702 2.07l-.154.924a.56.56 0 0 1-.193.334.54.54 0 0 1-.177.095.562.562 0 0 1-.458-.06.534.534 0 0 1-.244-.547l.154-.92-1.168-.194-.153.92a.555.555 0 0 1-.193.333.537.537 0 0 1-.177.095.562.562 0 0 1-.459-.06.537.537 0 0 1-.243-.547l.153-.919-.01-.002-1.854-.308a.537.537 0 0 1-.447-.624c.05-.3.325-.495.625-.445l.76.127.464-2.78.64-3.846-.76-.127a.537.537 0 0 1-.447-.624c.05-.299.325-.495.625-.445l.76.127 1.104.184.155-.93a.559.559 0 0 1 .193-.334.536.536 0 0 1 .177-.094.56.56 0 0 1 .602.191.537.537 0 0 1 .1.416l-.155.93 1.168.194.155-.93zm-3.246 5.467-.463 2.779 3.172.528a1.407 1.407 0 0 0 .479-2.775l-.017-.003-3.17-.529zm3.367-.537a1.407 1.407 0 0 0 .445-2.781l-.36-.06-2.242-.374-.543-.09-.004-.001-.022-.004-.463 2.779 3.172.528.017.003zM73.37 46.628a.556.556 0 0 1 .064-.38.539.539 0 0 1 .133-.15.562.562 0 0 1 .451-.102.538.538 0 0 1 .418.428l.178.932a2.495 2.495 0 0 1 2.749 2.006 2.485 2.485 0 0 1-.56 2.092c.65.34 1.144.963 1.292 1.739a2.495 2.495 0 0 1-1.817 2.877l.175.921a.56.56 0 0 1-.065.38.54.54 0 0 1-.133.15.562.562 0 0 1-.45.103.535.535 0 0 1-.418-.429l-.175-.915-1.163.222.175.915a.555.555 0 0 1-.066.38.538.538 0 0 1-.133.15.562.562 0 0 1-.45.103.538.538 0 0 1-.418-.43l-.175-.914a.122.122 0 0 1-.01.002l-1.846.352a.537.537 0 0 1-.635-.43.537.537 0 0 1 .432-.634l.757-.144-.528-2.767-.732-3.831-.757.144a.537.537 0 0 1-.635-.43.537.537 0 0 1 .431-.634l.758-.144 1.099-.21-.177-.926a.56.56 0 0 1 .065-.38.537.537 0 0 1 .133-.15.56.56 0 0 1 .632-.029.537.537 0 0 1 .237.355l.177.926 1.163-.222-.177-.926zm-1.151 6.253.528 2.766 3.158-.602a1.407 1.407 0 0 0-.512-2.77l-.017.003-3.157.603zm2.972-1.67a1.407 1.407 0 0 0-.546-2.764l-.36.069-2.231.426-.541.103h-.005l-.021.005.528 2.767 3.158-.603.018-.004z" fill="#13C8A4"/></svg>