<svg width="104" height="104" fill="none" xmlns="http://www.w3.org/2000/svg"><path d="M52 104c28.719 0 52-23.281 52-52S80.719 0 52 0 0 23.281 0 52s23.281 52 52 52z" fill="#fff"/><path fill-rule="evenodd" clip-rule="evenodd" d="m65.619 38.794 3.184 13.698c.568 2.445 2.611 4.16 4.955 4.16h5.48V49.33h-4.151l-4.513-19.416c-1.29-5.547-8.62-5.547-9.91 0l-4.513 19.416H46.52c-2.344 0-4.387 1.715-4.955 4.16L38.38 67.187l-3.184-13.698c-.569-2.445-2.611-4.16-4.955-4.16h-5.48v7.323h4.151l4.513 19.416c1.29 5.547 8.62 5.547 9.91 0l4.513-19.416h9.631c2.344 0 4.387-1.715 4.955-4.16l3.184-13.698z" fill="#000"/><path fill-rule="evenodd" clip-rule="evenodd" d="m65.619 38.794 3.184 13.698c.568 2.445 2.611 4.16 4.955 4.16h5.48V49.33h-4.151l-4.513-19.416c-1.29-5.547-8.62-5.547-9.91 0l-4.513 19.416h-4.646v7.323h5.975c2.344 0 4.387-1.715 4.955-4.16l3.184-13.698z" fill="#13C8A4"/></svg>